<?xml version="1.0" encoding="UTF-8"?>
<svg id="Layer_1" data-name="Layer 1" xmlns="http://www.w3.org/2000/svg" viewBox="0 0 446.37 442.85">
  <path d="M430.67,238.91c0,22.13-17.16,41.27-23.64,61.24-6.72,20.69-4.32,46.22-16.85,63.45-12.66,17.4-37.77,22.94-55.16,35.6-17.22,12.53-30.19,34.77-50.88,41.49-19.96,6.48-43.43-3.67-65.56-3.67s-45.59,10.15-65.56,3.67c-20.69-6.72-33.66-28.95-50.88-41.49-17.4-12.66-42.5-18.21-55.16-35.6s-10.14-42.75-16.85-63.44-23.64-39.11-23.64-61.24,17.16-41.27,23.64-61.24c6.72-20.69,4.32-46.22,16.85-63.45,12.66-17.4,37.77-22.94,55.16-35.6s30.19-34.77,50.88-41.49c19.96-6.48,43.43,3.67,65.56,3.67s45.59-10.15,65.56-3.67,33.66,28.95,50.88,41.49c17.4,12.66,42.5,18.21,55.16,35.6,12.53,17.22,10.14,42.75,16.85,63.44,6.48,19.96,23.64,39.11,23.64,61.24Z" style="fill: #97e2ff;"/>
  <path d="M361.73,238.91c0,14.9-12.12,27.71-16.48,41.16-4.53,13.94-2.41,31.39-10.85,42.99s-25.84,15.06-37.56,23.59c-11.6,8.44-20.08,23.92-34.02,28.45-13.45,4.37-29.35-3.03-44.25-3.03s-30.8,7.4-44.25,3.03c-13.94-4.53-22.42-20.01-34.02-28.45-11.72-8.53-29.03-11.87-37.56-23.59s-6.33-29.06-10.85-42.99-16.48-26.26-16.48-41.16,12.12-27.71,16.48-41.16c4.53-13.94,2.41-31.39,10.85-42.99,8.53-11.72,25.84-15.06,37.56-23.59s20.08-23.92,34.02-28.45,29.35,3.03,44.25,3.03,30.8-7.4,44.25-3.03c13.94,4.53,22.42,20.01,34.02,28.45s29.03,11.87,37.56,23.59,6.33,29.06,10.85,42.99c4.37,13.45,16.48,26.26,16.48,41.16Z" style="fill: #aeeaff;"/>
  <line x1="218.57" y1="120.19" x2="218.57" y2="209.3" style="fill: #aeeaff; stroke: #000; stroke-linecap: round; stroke-linejoin: round; stroke-width: 5px;"/>
  <path d="M253.25,274.5c-7.52,11.12-20.24,18.44-34.68,18.44-23.1,0-41.82-18.72-41.82-41.82s18.72-41.82,41.82-41.82" style="fill: #aeeaff; stroke: #000; stroke-linecap: round; stroke-linejoin: round; stroke-width: 5px;"/>
  <line x1="218.57" y1="2.5" x2="218.57" y2="26.65" style="fill: #aeeaff; stroke: #000; stroke-linecap: round; stroke-linejoin: round; stroke-width: 5px;"/>
  <rect x="186.94" y="26.65" width="63.27" height="93.54" rx="15" ry="15" style="fill: #f9f9f9;"/>
  <rect x="186.94" y="57.77" width="63.27" height="31.29" style="fill: #ff7b7b;"/>
  <path d="M364.82,166.59c.05.09.11.2.19.33h-.38s.06-.12.19-.33Z" style="fill: #aeeaff;"/>
  <path d="M364.63,166.26h.38c-.08.13-.14.24-.19.33-.13-.21-.19-.33-.19-.33Z" style="fill: #aeeaff;"/>
  <path d="M421.54,179.61l6.42,20.67s-5.7-1.42-14.97-7.13c-9.27-5.7-12.12-13.54-12.12-13.54,0,0,2.85-7.84,12.12-13.55,9.27-5.7,14.97-7.13,14.97-7.13l-6.42,20.68Z" style="fill: #db324d;"/>
  <path d="M365.77,199.61l1.24,8.69s-9.98-2.14-19.1-8.56c-.24-.17-.47-.34-.69-.51-19.63-4.19-27.62-19.62-27.62-19.62,0,0,7.18-13.87,24.66-18.89,1.42-2.02,3.3-4.05,5.79-5.79,9.12-6.42,19.1-8.56,19.1-8.56l-1.92,13.49c21.17,4.02,33.64,19.75,33.64,19.75,0,0-13.05,16.45-35.1,20h0Z" style="fill: #db324d;"/>
  <circle cx="342.06" cy="179.6" r="5.17"/>
  <path d="M352.4,164.28s4.28,7.84,4.28,15.68-4.28,14.97-4.28,14.97" style="fill: none; stroke: #000; stroke-miterlimit: 10; stroke-width: 3px;"/>
  <path d="M409.13,243.49c.03.05.06.12.11.19h-.22s.04-.07.11-.19Z" style="fill: #aeeaff;"/>
  <path d="M409.02,243.3h.22c-.05.08-.08.14-.11.19-.08-.12-.11-.19-.11-.19Z" style="fill: #aeeaff;"/>
  <path d="M442.59,251.18l3.79,12.19s-3.36-.84-8.83-4.21c-5.47-3.36-7.15-7.99-7.15-7.99,0,0,1.68-4.62,7.15-7.99,5.47-3.36,8.83-4.21,8.83-4.21l-3.79,12.2Z" style="fill: #db324d;"/>
  <path d="M409.69,262.98l.73,5.13s-5.89-1.26-11.27-5.05c-.14-.1-.28-.2-.41-.3-11.58-2.47-16.29-11.57-16.29-11.57,0,0,4.24-8.18,14.55-11.14.84-1.19,1.95-2.39,3.42-3.42,5.38-3.79,11.27-5.05,11.27-5.05l-1.13,7.96c12.49,2.37,19.84,11.65,19.84,11.65,0,0-7.7,9.7-20.71,11.8h0Z" style="fill: #db324d;"/>
  <circle cx="395.7" cy="251.17" r="3.05"/>
  <path d="M401.8,242.13s2.52,4.62,2.52,9.25-2.52,8.83-2.52,8.83" style="fill: none; stroke: #000; stroke-miterlimit: 10; stroke-width: 1.77px;"/>
  <path d="M130.35,422.55c7.96-28.48,15.35-57.77,13.21-87.27-2.14-29.5-15.37-59.67-40.54-75.2,10.7,25.91,10.4,54.82,11.1,82.85.37,14.81,1.13,29.71,4.01,44.28,2.69,13.63,8.95,24.73,13.62,37.43-8.11-4.61-15.54-11.09-23.09-16.62-7.2-5.27-14.45-10.59-20.39-17.24-10.75-12.03-16.53-27.64-20.93-43.17-3.48-12.29-6.25-24.88-6.53-37.64-.16-7.46.52-14.94-.1-22.37-1.41-16.77-9.54-32.51-20.71-45.1S14.72,220.25,0,212.09c21.25,2.68,41.75,11.17,58.67,24.3,6.99,5.42,13.5,11.79,17.42,19.72,7.3,14.79,4.52,32.26,4.88,48.75.96,44.28,25.17,84.7,50.56,119.51" style="fill: #3c9e53;"/>
</svg>