<?xml version="1.0" encoding="UTF-8"?>
<svg id="Illustration" xmlns="http://www.w3.org/2000/svg" viewBox="0 0 360.3 352.14">
  <path d="M360.3,173.56c0,18.89-12.75,35.55-18.28,52.6-5.74,17.67-5.41,38.6-16.11,53.3s-30.89,20.96-45.74,31.77c-14.71,10.7-26.66,27.97-44.33,33.71-17.05,5.54-36.79-1.23-55.68-1.23s-38.63,6.76-55.68,1.23c-17.67-5.74-29.62-23.01-44.33-33.71-14.86-10.81-34.93-16.92-45.74-31.77-10.7-14.71-10.38-35.63-16.11-53.3S0,192.45,0,173.56s12.75-35.55,18.28-52.6,5.41-38.6,16.11-53.3,30.89-20.96,45.74-31.77S106.8,7.92,124.47,2.18s36.79,1.23,55.68,1.23,38.63-6.76,55.68-1.23,29.62,23.01,44.33,33.71,34.93,16.92,45.74,31.77c10.7,14.71,10.38,35.63,16.11,53.3,5.54,17.05,18.28,33.7,18.28,52.6Z" style="fill: #8cdedc;"/>
  <path d="M300.92,173.56c0,12.49-11.73,22.97-15.39,34.24-3.79,11.68-.59,27.03-7.67,36.75-7.15,9.82-22.78,11.49-32.6,18.63s-16.1,21.47-27.78,25.26c-11.27,3.66-24.84-4.12-37.33-4.12s-26.06,7.78-37.33,4.12-18.06-18.19-27.78-25.26c-9.82-7.15-25.45-8.81-32.6-18.63s-3.87-25.07-7.67-36.75-15.39-21.75-15.39-34.24,11.73-22.97,15.39-34.24.59-27.03,7.67-36.75,22.78-11.49,32.6-18.63,16.1-21.47,27.78-25.26,24.84,4.12,37.33,4.12,26.06-7.78,37.33-4.12c11.68,3.79,18.06,18.19,27.78,25.26s25.45,8.81,32.6,18.63c7.07,9.72,3.87,25.07,7.67,36.75,3.66,11.27,15.39,21.75,15.39,34.24Z" style="fill: #b2ece1;"/>
  <g id="Fishing_Rod" data-name="Fishing Rod">
    <path d="M93.42,6.32s47.64,81.32,77.47,142.91c29.83,61.59,68.17,141.79,68.17,141.79l9.78-5.13s-27.91-61.11-68.81-141.95c-40.9-80.84-52.45-95.76-63.04-110.67-10.59-14.92-23.58-26.95-23.58-26.95Z" style="fill: #66462c;"/>
    <polygon points="225.81 297.27 262.22 278.67 264.79 284.44 229.02 303.37 225.81 297.27" style="fill: #726953;"/>
    <polygon points="250.39 346.04 286.8 327.43 289.36 333.21 253.6 352.14 250.39 346.04" style="fill: #726953;"/>
    <polygon points="240.51 297.96 260.66 340.79 275.28 333.32 253.63 291.02 240.51 297.96" style="fill: #66462c;"/>
    <path d="M93.42,6.32s19.89,16.36-12.83,55.82C47.87,101.59-3.69,108.14,12.26,168.96c13.79,52.61,93.67-28.33,116.77,4.6,23.1,32.93-21.17,67.9-21.17,67.9" style="fill: none; stroke: #000; stroke-linecap: round; stroke-linejoin: round; stroke-width: 3px;"/>
    <polygon points="85.72 252.04 98.87 263.59 114.59 247.87 100.15 235.36 85.72 252.04" style="fill: #fff;"/>
    <path d="M83,274.5s-11.52-4.46-5.47-11.27c6.05-6.82,12.1,2.36,12.1,2.36l3.37-4.21" style="fill: none; stroke: #000; stroke-linecap: round; stroke-linejoin: round; stroke-width: 3px;"/>
  </g>
  <g id="Fish">
    <path d="M221.48,99.78s6.42-14.76,30.15-14.76,32.08,14.76,32.08,14.76c0,0-6.42,13.47-31.12,12.83-24.7-.64-31.12-12.83-31.12-12.83Z" style="fill: #ba274a;"/>
    <path d="M297.83,97.87l10.27-13.81s-9.62,3.85-17.32,9.62l-7.7,5.77s.64,4.49,7.7,8.98c7.06,4.49,12.19,3.23,12.19,3.23l-5.13-13.81Z" style="fill: #ba274a;"/>
    <path d="M233.67,89.51s10.96-13.23,18.93-16.68c7.4-3.21-.96,12.19-.96,12.19" style="fill: #ba274a;"/>
    <path d="M236.42,110.14c-.73-.61,6.16,8.19,14.2,12.51,5.33,2.86-.72-9.14-.72-9.14" style="fill: #ba274a;"/>
    <circle cx="235.42" cy="98.83" r="3.38"/>
    <path d="M246.6,89.51s2.99,3.23,3.11,9.31c.11,6.08-3.11,8.01-3.11,8.01" style="fill: none; stroke: #000; stroke-linecap: round; stroke-linejoin: round;"/>
  </g>
  <g id="Fish-2" data-name="Fish">
    <path d="M272.5,170.77s4.52-10.4,21.26-10.4,22.61,10.4,22.61,10.4c0,0-4.52,9.5-21.94,9.05-17.41-.45-21.94-9.05-21.94-9.05Z" style="fill: #76877d;"/>
    <path d="M326.32,169.43l7.24-9.73s-6.78,2.71-12.21,6.78l-5.43,4.07s.45,3.17,5.43,6.33,8.59,2.28,8.59,2.28l-3.62-9.73Z" style="fill: #76877d;"/>
    <path d="M281.09,163.54s7.72-9.32,13.34-11.76c5.22-2.26-.68,8.59-.68,8.59" style="fill: #76877d;"/>
    <path d="M283.03,178.08c-.51-.43,4.34,5.78,10.01,8.82,3.76,2.02-.51-6.44-.51-6.44" style="fill: #76877d;"/>
    <circle cx="282.33" cy="170.1" r="2.38"/>
    <path d="M290.21,163.54s2.11,2.28,2.19,6.57c.08,4.29-2.19,5.65-2.19,5.65" style="fill: none; stroke: #000; stroke-linecap: round; stroke-linejoin: round;"/>
  </g>
</svg>